<svg id="Capa_1" enable-background="new 0 0 512 512" height="512" viewBox="0 0 512 512" width="512" xmlns="http://www.w3.org/2000/svg"><g><path d="m512 256c0 141.385-114.615 256-256 256s-256-114.615-256-256 114.615-256 256-256 256 114.615 256 256z" fill="#232e7a"/><path d="m325.099 306.78c3.364 10.575 5.179 21.84 5.179 33.53 0 17.81-4.214 34.636-11.698 49.535 18.748 11.649 31.23 32.429 31.23 56.125 0 36.467-29.563 66.03-66.03 66.03-34.846 0-63.387-26.992-65.856-61.208-60.17-.991-108.642-50.076-108.642-110.482 0-38.137 19.32-71.761 48.707-91.619-19.083-25.897-30.361-57.9-30.361-92.538 0-86.241 69.912-156.153 156.152-156.153s156.153 69.912 156.153 156.153c0 71.937-48.644 132.512-114.834 150.627z" fill="#2b3894"/><path d="m49.719 213.827c-3.962 2.422-7.31 5.689-9.792 9.555-.459.715-1.528.715-1.987 0-2.482-3.866-5.83-7.133-9.792-9.555-.733-.448-.733-1.49 0-1.938 3.962-2.422 7.31-5.689 9.792-9.555.459-.716 1.528-.716 1.987 0 2.482 3.866 5.83 7.133 9.792 9.555.733.448.733 1.49 0 1.938zm22.291 27.857c-3.962-2.482-7.31-5.83-9.792-9.792-.459-.733-1.528-.733-1.987 0-2.482 3.962-5.83 7.31-9.792 9.792-.733.459-.733 1.527 0 1.987 3.962 2.482 7.31 5.83 9.792 9.792.459.733 1.528.733 1.987 0 2.482-3.962 5.83-7.31 9.792-9.792.733-.46.733-1.527 0-1.987zm84.849 202.934c-3.962-2.422-7.31-5.688-9.792-9.555-.459-.715-1.528-.715-1.987 0-2.482 3.866-5.83 7.133-9.792 9.555-.733.448-.733 1.491 0 1.939 3.962 2.422 7.31 5.689 9.792 9.555.459.715 1.528.715 1.987 0 2.482-3.866 5.83-7.133 9.792-9.555.733-.448.733-1.491 0-1.939zm23.299-387.725c-3.962-2.422-7.31-5.688-9.792-9.555-.459-.715-1.528-.715-1.987 0-2.482 3.866-5.83 7.133-9.792 9.555-.733.448-.733 1.491 0 1.939 3.962 2.422 7.31 5.689 9.792 9.555.459.715 1.528.715 1.987 0 2.482-3.866 5.83-7.133 9.792-9.555.733-.449.733-1.491 0-1.939zm266.489 285.396c-3.962-2.482-7.31-5.83-9.792-9.792-.459-.733-1.528-.733-1.987 0-2.482 3.962-5.83 7.31-9.792 9.792-.733.459-.733 1.527 0 1.987 3.962 2.482 7.31 5.831 9.792 9.792.459.733 1.528.733 1.987 0 2.482-3.962 5.83-7.31 9.792-9.792.733-.46.733-1.527 0-1.987z" fill="#717ed6"/><path d="m391.495 226.117-94.549-101.414 65.623-92.161c1.099-1.543 1.231-3.573.343-5.246-.889-1.672-2.624-2.691-4.539-2.652l-97.636 2.402c-1.167.028-2.286.464-3.165 1.231l-121.487 106.05c-1.629 1.422-2.16 3.73-1.314 5.721.789 1.858 2.609 3.046 4.6 3.046.142 0 .286-.006.429-.019l148.708-12.759 92.194 98.888-118.197 105.868-111.657 41.303c-1.626.602-2.825 2.003-3.167 3.703-.342 1.699.221 3.455 1.488 4.64l72.561 67.808c.333.312.708.576 1.113.786l85.853 44.505c.736.381 1.522.562 2.297.562 1.808 0 3.553-.983 4.443-2.7 1.271-2.451.314-5.469-2.138-6.74l-85.243-44.188-66.139-61.807 104.95-38.822c.589-.218 1.133-.546 1.601-.965l122.706-109.905c1-.896 1.599-2.157 1.659-3.5.061-1.343-.421-2.652-1.337-3.635zm-128.707-189.118 85.836-2.112-60.85 85.457-133.594 11.462z" fill="#717ed6"/><path d="m284.655 31.337c0-2.713 2.164-4.931 4.877-4.998l28.303-.697c2.809-.069 5.123 2.189 5.123 4.998 0 2.713-2.164 4.931-4.877 4.998l-28.303.697c-2.809.069-5.123-2.189-5.123-4.998zm-49.798 22.957c-1.86-1.86-4.842-1.961-6.824-.232l-43.344 37.838c-2.181 1.903-2.294 5.255-.247 7.302 1.86 1.86 4.842 1.961 6.823.231l43.345-37.837c2.181-1.903 2.294-5.255.247-7.302zm-.751 75.243c0 2.931 2.508 5.232 5.427 4.982l48.974-4.202 51.459 55.195c3.095 3.32 8.657 1.13 8.657-3.409 0-1.266-.48-2.484-1.343-3.41l-50.335-53.99 32.13-45.124c2.357-3.31-.01-7.899-4.073-7.899h-2.045v-.749l-35.184 49.412-49.095 4.212c-2.585.223-4.572 2.387-4.572 4.982zm49.131 343.818-28.043-14.537c-3.328-1.726-7.301.69-7.301 4.438v.001c0 1.868 1.041 3.58 2.699 4.439l28.043 14.537c3.328 1.725 7.301-.69 7.301-4.438v-.001c0-1.868-1.041-3.58-2.699-4.439zm63.31-211.844c-1.232 0-2.42.454-3.337 1.275l-79.996 71.651c-.468.419-1.011.747-1.601.965l-61.518 22.756c-1.962.726-3.265 2.597-3.265 4.689 0 3.481 3.469 5.897 6.734 4.689l63.303-23.416c.589-.218 1.133-.546 1.601-.965l81.414-72.921c3.418-3.06 1.253-8.723-3.335-8.723z" fill="#a6aee5"/><path d="m395.515 95.8c3.943 6.294 9.261 11.612 15.555 15.555 1.165.73 1.165 2.426 0 3.156-6.294 3.943-11.612 9.261-15.555 15.555-.73 1.165-2.426 1.165-3.156 0-3.943-6.294-9.261-11.612-15.555-15.555-1.165-.73-1.165-2.426 0-3.156 6.294-3.943 11.612-9.261 15.555-15.555.73-1.165 2.427-1.165 3.156 0zm-323.76 235.078c-2.482 3.962-5.83 7.31-9.792 9.792-.733.459-.733 1.528 0 1.987 3.962 2.482 7.31 5.83 9.792 9.792.459.733 1.528.733 1.987 0 2.482-3.962 5.83-7.31 9.792-9.792.733-.459.733-1.528 0-1.987-3.962-2.482-7.31-5.83-9.792-9.792-.46-.734-1.528-.734-1.987 0z" fill="#40c1fa"/><path d="m429.724 152.458c2.482 3.962 5.83 7.31 9.792 9.792.733.459.733 1.528 0 1.987-3.962 2.482-7.31 5.83-9.792 9.792-.459.733-1.528.733-1.987 0-2.482-3.962-5.83-7.31-9.792-9.792-.733-.459-.733-1.528 0-1.987 3.962-2.482 7.31-5.83 9.792-9.792.46-.734 1.528-.734 1.987 0zm-172.165 140.164-7.566 11.249c-.693 1.03-1.999 1.454-3.165 1.028l-12.733-4.653c-1.799-.658-3.692.717-3.622 2.632l.491 13.548c.045 1.241-.762 2.352-1.956 2.692l-13.036 3.72c-1.842.526-2.565 2.75-1.384 4.258l8.36 10.672c.766.977.766 2.351 0 3.328l-8.36 10.672c-1.182 1.508-.459 3.733 1.384 4.259l13.036 3.72c1.194.341 2.001 1.452 1.956 2.692l-.491 13.548c-.069 1.915 1.823 3.29 3.622 2.632l12.733-4.653c1.166-.426 2.472-.002 3.165 1.028l7.566 11.249c1.069 1.59 3.408 1.59 4.478 0l7.566-11.249c.693-1.03 1.999-1.454 3.165-1.028l12.733 4.653c1.799.658 3.692-.717 3.622-2.632l-.491-13.548c-.045-1.241.762-2.352 1.956-2.692l13.036-3.72c1.842-.526 2.565-2.75 1.384-4.259l-8.36-10.672c-.766-.977-.766-2.351 0-3.328l8.36-10.672c1.182-1.508.459-3.733-1.384-4.258l-13.036-3.72c-1.194-.341-2.001-1.452-1.956-2.692l.491-13.548c.069-1.915-1.823-3.29-3.622-2.632l-12.733 4.653c-1.166.426-2.472.002-3.165-1.028l-7.566-11.249c-1.07-1.59-3.409-1.59-4.478 0zm9.644-250.384c-8.043-.137-14.598-6.692-14.735-14.735-.027-1.595.194-3.134.629-4.581.193-.642-.506-1.189-1.079-.841-4.342 2.639-7.237 7.421-7.219 12.878.027 8.205 6.744 14.921 14.949 14.949 5.453.018 10.232-2.873 12.872-7.21.351-.576-.199-1.279-.846-1.086-1.445.432-2.98.653-4.571.626zm122.83 195.724c-8.043-.137-14.598-6.692-14.735-14.735-.027-1.595.194-3.134.629-4.581.193-.642-.506-1.189-1.079-.841-4.342 2.639-7.237 7.421-7.219 12.878.027 8.205 6.744 14.921 14.949 14.949 5.453.018 10.232-2.873 12.872-7.21.351-.576-.199-1.279-.846-1.086-1.445.433-2.98.654-4.571.626zm-228.255 151.735c-8.043-.137-14.598-6.692-14.735-14.735-.027-1.595.194-3.134.629-4.581.193-.642-.506-1.189-1.079-.841-4.342 2.639-7.237 7.421-7.219 12.878.027 8.205 6.744 14.921 14.949 14.949 5.453.018 10.232-2.873 12.872-7.21.351-.576-.199-1.279-.846-1.086-1.445.432-2.981.653-4.571.626zm66.442 62.189c-8.043-.137-14.598-6.692-14.735-14.735-.027-1.595.194-3.134.629-4.581.193-.642-.506-1.189-1.079-.841-4.342 2.639-7.237 7.421-7.219 12.878.027 8.205 6.744 14.921 14.949 14.949 5.453.018 10.232-2.873 12.872-7.21.351-.576-.199-1.279-.846-1.086-1.445.432-2.98.653-4.571.626z" fill="#ffa90b"/><path d="m264.636 363.144-6.716-3.896c-.459-.266-1.005-.339-1.517-.203l-7.504 1.994c-1.068.284-2.163-.352-2.447-1.419l-1.994-7.504c-.136-.513-.471-.95-.929-1.216l-6.716-3.896c-.955-.554-1.281-1.778-.726-2.734l3.896-6.716c.266-.459.339-1.005.203-1.517l-1.994-7.504c-.284-1.068.352-2.163 1.419-2.447l7.504-1.994c.513-.136.95-.471 1.216-.929l3.896-6.716c.554-.955 1.778-1.281 2.734-.726l6.716 3.896c.459.266 1.005.339 1.517.203l7.504-1.994c1.068-.284 2.163.352 2.447 1.419l1.994 7.504c.136.513.471.95.929 1.216l6.716 3.896c.955.554 1.281 1.778.726 2.734l-3.896 6.716c-.266.459-.339 1.005-.203 1.517l1.994 7.504c.284 1.068-.352 2.163-1.419 2.447l-7.504 1.994c-.513.136-.95.471-1.216.929l-3.896 6.716c-.555.955-1.779 1.28-2.734.726zm10.162-328.236c0 2.899-.823 5.607-2.247 7.901-2.294 1.425-5.002 2.247-7.901 2.247-8.284 0-15-6.716-15-15 0-2.899.823-5.607 2.247-7.901 2.294-1.425 5.002-2.247 7.901-2.247 8.284 0 15 6.715 15 15zm122.83 195.724c0 2.899-.823 5.607-2.247 7.901-2.294 1.425-5.002 2.247-7.901 2.247-8.284 0-15-6.716-15-15 0-2.899.823-5.607 2.247-7.901 2.294-1.425 5.002-2.247 7.901-2.247 8.284 0 15 6.716 15 15zm-228.256 151.734c0 2.899-.823 5.607-2.247 7.901-2.294 1.425-5.002 2.247-7.901 2.247-8.284 0-15-6.716-15-15 0-2.899.823-5.607 2.247-7.901 2.294-1.425 5.002-2.247 7.901-2.247 8.285 0 15 6.716 15 15zm66.443 62.189c0 2.899-.823 5.607-2.247 7.901-2.294 1.425-5.002 2.247-7.901 2.247-8.284 0-15-6.716-15-15 0-2.899.823-5.607 2.247-7.901 2.294-1.425 5.002-2.247 7.901-2.247 8.284 0 15 6.716 15 15zm97.618 56.385c.861-.258 1.595.679 1.127 1.447-3.521 5.782-9.893 9.637-17.163 9.613-10.94-.037-19.895-8.992-19.931-19.931-.024-7.276 3.836-13.651 9.625-17.171.764-.464 1.696.265 1.439 1.121-.579 1.93-.875 3.982-.838 6.108.183 10.724 8.923 19.464 19.647 19.647 2.122.036 4.169-.258 6.094-.834zm-27.256-366.873c.861-.258 1.595.679 1.127 1.447-3.521 5.782-9.893 9.637-17.163 9.613-10.94-.037-19.895-8.992-19.931-19.931-.024-7.276 3.836-13.651 9.625-17.171.764-.464 1.696.265 1.439 1.121-.579 1.929-.875 3.982-.838 6.108.183 10.724 8.923 19.464 19.647 19.647 2.122.037 4.169-.257 6.094-.834zm64.496-91.596c.861-.258 1.595.679 1.127 1.447-3.521 5.782-9.893 9.637-17.163 9.613-10.94-.037-19.895-8.992-19.931-19.931-.024-7.276 3.836-13.651 9.625-17.171.764-.464 1.696.265 1.439 1.121-.579 1.929-.875 3.982-.838 6.108.183 10.724 8.923 19.464 19.647 19.647 2.122.036 4.169-.258 6.094-.834z" fill="#ffc14f"/><path d="m283.51 334.593-3.896 6.716c-.266.459-.339 1.005-.203 1.517l1.994 7.504c.284 1.068-.352 2.163-1.419 2.447l-7.504 1.994c-.138.037-.271.088-.396.152-12.215-6.996-22.263-17.344-28.891-29.791l3.919-1.041c.512-.136.95-.471 1.216-.929l3.896-6.716c.554-.955 1.778-1.281 2.733-.726l6.716 3.896c.459.266 1.005.339 1.517.203l7.504-1.994c1.067-.284 2.163.352 2.447 1.419l1.994 7.504c.136.513.47.95.929 1.216l6.716 3.896c.957.554 1.282 1.777.728 2.733zm53.956 157.407c0 3.866-1.097 7.475-2.996 10.535-3.059 1.899-6.669 2.996-10.535 2.996-11.046 0-20-8.954-20-20 0-3.866 1.097-7.475 2.996-10.535 3.059-1.899 6.669-2.996 10.535-2.996 11.046 0 20 8.954 20 20zm-27.256-366.872c0 3.866-1.097 7.475-2.996 10.535-3.059 1.899-6.669 2.996-10.535 2.996-11.046 0-20-8.954-20-20 0-3.866 1.097-7.475 2.996-10.535 3.059-1.899 6.669-2.996 10.535-2.996 11.046 0 20 8.954 20 20zm64.496-91.597c0 3.866-1.097 7.475-2.996 10.535-3.059 1.899-6.669 2.996-10.535 2.996-11.046 0-20-8.954-20-20 0-3.866 1.097-7.475 2.996-10.535 3.059-1.899 6.669-2.996 10.535-2.996 11.046 0 20 8.954 20 20zm-215.375 115.739c1.077-.322 1.994.849 1.409 1.809-4.401 7.228-12.366 12.047-21.454 12.016-13.675-.046-24.869-11.24-24.914-24.914-.03-9.095 4.796-17.064 12.032-21.463.955-.58 2.12.331 1.799 1.401-.724 2.412-1.093 4.977-1.048 7.635.229 13.405 11.154 24.33 24.559 24.559 2.652.045 5.211-.323 7.617-1.043z" fill="#fff36c"/><path d="m164.372 138.095c0 4.832-1.371 9.344-3.745 13.168-3.824 2.374-8.336 3.745-13.168 3.745-13.807 0-25-11.193-25-25 0-4.832 1.371-9.344 3.745-13.168 3.824-2.374 8.336-3.745 13.168-3.745 13.807 0 25 11.193 25 25z" fill="#fff79f"/></g></svg>